<svg width="27" height="28" viewBox="0 0 27 28" fill="none" xmlns="http://www.w3.org/2000/svg">
<path d="M14.1249 1.51507C13.9168 1.50486 13.7084 1.49986 13.4999 1.50007C6.59622 1.50007 1 7.09629 1 14C1 20.9037 6.59622 26.4999 13.4999 26.4999C20.4036 26.4999 25.9999 20.9037 25.9999 14C25.9999 12.9213 25.8624 11.8738 25.6061 10.875" stroke="strokeColorReplace" stroke-width="1.25" stroke-linecap="round" stroke-linejoin="round"/>
<path d="M8.5 17.75C9.08216 18.5263 9.83706 19.1563 10.7049 19.5902C11.5727 20.0241 12.5297 20.25 13.5 20.25C14.4702 20.25 15.4272 20.0241 16.295 19.5902C17.1629 19.1563 17.9178 18.5263 18.4999 17.75M11 10.8751H9.38374C8.81749 10.8751 8.275 11.1001 7.875 11.5001M16 10.8751H17.6162C18.1824 10.8751 18.7249 11.1001 19.1249 11.5001M18.3599 1.91389C19.5337 1.22889 20.5574 1.50514 21.1724 1.94514C21.4249 2.12514 21.5512 2.21514 21.6249 2.21514C21.6999 2.21514 21.8249 2.12514 22.0774 1.94514C22.6924 1.50514 23.7162 1.22889 24.8899 1.91389C26.4299 2.81388 26.7774 5.78137 23.2274 8.2851C22.5499 8.76135 22.2112 9.0001 21.6249 9.0001C21.0387 9.0001 20.6999 8.7626 20.0237 8.2851C16.4725 5.78137 16.8199 2.81388 18.3612 1.91389" stroke="strokeColorReplace" stroke-width="1.25" stroke-linecap="round" stroke-linejoin="round"/>
</svg>
