<svg width="25" height="26" viewBox="0 0 25 26" fill="none">
<path d="M10.7107 1.14051C11.2024 0.728127 11.84 0.5 12.5009 0.5C13.1618 0.5 13.7994 0.728127 14.2911 1.14051L24.1125 9.37926C24.3917 9.61369 24.6151 9.90033 24.768 10.2206C24.9209 10.5408 24.9999 10.8875 25 11.2381V22.9994C25 23.6626 24.7178 24.2986 24.2155 24.7676C23.7131 25.2365 23.0318 25.5 22.3214 25.5H17.8571C17.1467 25.5 16.4654 25.2365 15.9631 24.7676C15.4608 24.2986 15.1786 23.6626 15.1786 22.9994V17.1646C15.1786 16.9435 15.0845 16.7315 14.9171 16.5752C14.7496 16.4188 14.5225 16.331 14.2857 16.331H10.7143C10.4775 16.331 10.2504 16.4188 10.0829 16.5752C9.9155 16.7315 9.82143 16.9435 9.82143 17.1646V22.9994C9.82143 23.6626 9.53922 24.2986 9.03689 24.7676C8.53456 25.2365 7.85326 25.5 7.14286 25.5H2.67857C1.96817 25.5 1.28687 25.2365 0.784535 24.7676C0.282206 24.2986 0 23.6626 0 22.9994V11.2381C0 10.5295 0.321428 9.85438 0.889286 9.37926L10.7107 1.14051ZM13.0964 2.38082C12.9326 2.24352 12.7202 2.16757 12.5 2.16757C12.2798 2.16757 12.0674 2.24352 11.9036 2.38082L2.08214 10.6196C1.9891 10.6975 1.91464 10.7929 1.86357 10.8994C1.81251 11.006 1.78598 11.1213 1.78571 11.2381V22.9994C1.78571 23.2204 1.87978 23.4325 2.04723 23.5888C2.21467 23.7451 2.44177 23.8329 2.67857 23.8329H7.14286C7.37966 23.8329 7.60676 23.7451 7.7742 23.5888C7.94165 23.4325 8.03571 23.2204 8.03571 22.9994V17.1646C8.03571 16.5014 8.31792 15.8653 8.82025 15.3963C9.32258 14.9274 10.0039 14.6639 10.7143 14.6639H14.2857C14.9961 14.6639 15.6774 14.9274 16.1798 15.3963C16.6821 15.8653 16.9643 16.5014 16.9643 17.1646V22.9994C16.9643 23.2204 17.0584 23.4325 17.2258 23.5888C17.3932 23.7451 17.6203 23.8329 17.8571 23.8329H22.3214C22.5582 23.8329 22.7853 23.7451 22.9528 23.5888C23.1202 23.4325 23.2143 23.2204 23.2143 22.9994V11.2381C23.214 11.1213 23.1875 11.006 23.1364 10.8994C23.0854 10.7929 23.0109 10.6975 22.9179 10.6196L13.0964 2.38082Z" fill="#000"/>
</svg>
