<svg width="27" height="28" viewBox="0 0 27 28" fill="none" xmlns="http://www.w3.org/2000/svg">
<path d="M6.88818 8.07941L10.5655 10.3688C12.7092 11.703 13.5654 11.703 15.7103 10.3688L19.3876 8.07941" stroke="#000" stroke-width="1.25" stroke-linecap="round" stroke-linejoin="round"/>
<path d="M12.513 23.8632C11.9305 23.8553 10.0968 23.879 9.51185 23.8632C5.57578 23.758 3.60837 23.7067 2.19468 22.2093C0.780997 20.712 0.739749 18.6923 0.657253 14.6516C0.630851 13.3549 0.630851 12.0577 0.657253 10.7609C0.739749 6.71894 0.780997 4.69926 2.19468 3.20193C3.60837 1.7046 5.57578 1.65329 9.51185 1.54934C11.9367 1.48355 14.3391 1.48355 16.764 1.54934C20.7001 1.65329 22.6675 1.70592 24.0812 3.20193C25.4949 4.69794 25.5361 6.71894 25.6186 10.7609C25.6353 11.6285 25.6407 12.4942 25.6349 13.3582" stroke="#000" stroke-width="1.25" stroke-linecap="round" stroke-linejoin="round"/>
<path d="M16.9065 17.7989C18.2477 16.9568 19.4176 17.2963 20.1201 17.8357C20.4076 18.0581 20.5526 18.1686 20.6376 18.1686C20.7226 18.1686 20.8663 18.0581 21.155 17.8357C21.8575 17.2963 23.0275 16.9568 24.3686 17.7989C26.1286 18.9041 26.526 22.5475 22.4687 25.6211C21.6938 26.2066 21.3088 26.5 20.6376 26.5C19.9663 26.5 19.5801 26.2066 18.8076 25.6211C14.7491 22.5475 15.1466 18.9028 16.9065 17.7989Z" stroke="#000" stroke-width="1.25" stroke-linecap="round" stroke-linejoin="round"/>
</svg>
