<svg width="33" height="25" viewBox="0 0 33 25" fill="none" xmlns="http://www.w3.org/2000/svg">
<path d="M25.8321 16.4985L30.8957 11.4046C31.0511 11.2481 31.2348 11.1698 31.4466 11.1698C31.6563 11.1698 31.8495 11.2476 32.0263 11.403C32.203 11.5584 32.2855 11.7484 32.2738 11.973C32.2642 12.1966 32.1817 12.3866 32.0263 12.5431L26.7343 17.8334C26.4767 18.0921 26.1691 18.2214 25.8114 18.2214C25.4537 18.2214 25.146 18.0921 24.8884 17.8334L22.9914 15.9268C22.836 15.7714 22.7534 15.5877 22.7439 15.3759C22.7343 15.164 22.8168 14.9708 22.9914 14.7962C23.1468 14.6408 23.3352 14.5647 23.5567 14.5679C23.7781 14.5711 23.9665 14.6472 24.1219 14.7962L25.8321 16.4985ZM12.8882 23.7641C10.461 21.5423 8.43891 19.6299 6.82186 18.0266C5.2048 16.4234 3.92041 14.9974 2.9687 13.7487C2.01486 12.5 1.34206 11.3577 0.950305 10.3219C0.558549 9.28611 0.362671 8.23806 0.362671 7.17776C0.362671 5.14659 1.0525 3.44277 2.43217 2.0663C3.81183 0.689832 5.51724 0.00159672 7.54841 0.00159672C8.95363 0.00159672 10.271 0.360884 11.5006 1.07946C12.7301 1.79803 13.808 2.84289 14.7342 4.21404C15.6603 2.84289 16.7382 1.79803 17.9677 1.07946C19.1973 0.360884 20.5147 0.00106455 21.9199 0C23.769 0 25.3382 0.574859 26.6274 1.72458C27.9176 2.8743 28.7054 4.30559 28.9907 6.01846H27.3491C27.0958 4.70906 26.4624 3.6445 25.4489 2.8248C24.4354 2.00509 23.2591 1.59524 21.9199 1.59524C20.6243 1.59524 19.448 1.96144 18.3909 2.69386C17.3338 3.42627 16.3294 4.535 15.3777 6.02006H14.0938C13.1251 4.51584 12.11 3.40285 11.0487 2.68108C9.98731 1.95931 8.82056 1.5979 7.54841 1.59683C5.99097 1.59683 4.66986 2.12751 3.58508 3.18887C2.50136 4.2513 1.9595 5.58093 1.9595 7.17776C1.9595 8.07624 2.1458 8.98857 2.51839 9.91473C2.89099 10.8409 3.55633 11.9054 4.51443 13.1084C5.47253 14.3113 6.77661 15.7261 8.42667 17.3528C10.0767 18.9794 12.1792 20.9504 14.7342 23.2658C15.5496 22.5313 16.3512 21.8053 17.139 21.0878C17.9268 20.3724 18.631 19.7177 19.2516 19.1237L19.4272 19.2993L19.8201 19.6937L20.2161 20.0881L20.3917 20.2638C19.7636 20.8568 19.0642 21.4997 18.2935 22.1928C17.5228 22.8858 16.7398 23.5996 15.9446 24.3341L15.598 24.6535C15.366 24.8845 15.078 25 14.7342 25C14.3903 25 14.1029 24.8845 13.8719 24.6535L12.8882 23.7641Z" fill="fillColorReplace"/>
</svg>
